<svg width="109" height="109" viewBox="0 0 109 109" fill="none" xmlns="http://www.w3.org/2000/svg">
<g filter="url(#filter0_di)">
<path d="M76 54.5C76 66.3741 66.3741 76 54.5 76C42.6259 76 33 66.3741 33 54.5C33 42.6259 42.6259 33 54.5 33C66.3741 33 76 42.6259 76 54.5ZM54.5 86C71.897 86 86 71.897 86 54.5C86 37.103 71.897 23 54.5 23C37.103 23 23 37.103 23 54.5C23 71.897 37.103 86 54.5 86ZM100 54.5C100 79.629 79.629 100 54.5 100C29.371 100 9 79.629 9 54.5C9 29.371 29.371 9 54.5 9C79.629 9 100 29.371 100 54.5Z" stroke="#F85C37" stroke-width="10"/>
</g>
<defs>
<filter id="filter0_di" x="0" y="0" width="109" height="109" filterUnits="userSpaceOnUse" color-interpolation-filters="sRGB">
<feFlood flood-opacity="0" result="BackgroundImageFix"/>
<feColorMatrix in="SourceAlpha" type="matrix" values="0 0 0 0 0 0 0 0 0 0 0 0 0 0 0 0 0 0 127 0"/>
<feOffset/>
<feGaussianBlur stdDeviation="2"/>
<feColorMatrix type="matrix" values="0 0 0 0 0.972549 0 0 0 0 0.360784 0 0 0 0 0.215686 0 0 0 0.25 0"/>
<feBlend mode="normal" in2="BackgroundImageFix" result="effect1_dropShadow"/>
<feBlend mode="normal" in="SourceGraphic" in2="effect1_dropShadow" result="shape"/>
<feColorMatrix in="SourceAlpha" type="matrix" values="0 0 0 0 0 0 0 0 0 0 0 0 0 0 0 0 0 0 127 0" result="hardAlpha"/>
<feOffset/>
<feGaussianBlur stdDeviation="2"/>
<feComposite in2="hardAlpha" operator="arithmetic" k2="-1" k3="1"/>
<feColorMatrix type="matrix" values="0 0 0 0 0.972549 0 0 0 0 0.360784 0 0 0 0 0.215686 0 0 0 0.25 0"/>
<feBlend mode="normal" in2="shape" result="effect2_innerShadow"/>
</filter>
</defs>
</svg>
